HIERARCHY
ROOT Hips
{
	OFFSET 0.000000 0.000000 0.000000 
	CHANNELS 6 Xposition Yposition Zposition Zrotation Yrotation Xrotation
	JOINT LeftUpLeg
	{
		OFFSET 1.363060 -1.794630 0.839290 
		CHANNELS 3 Zrotation Yrotation Xrotation
		JOINT LeftLeg
		{
			OFFSET 2.448110 -6.726130 0.000000 
			CHANNELS 3 Zrotation Yrotation Xrotation
			JOINT LeftFoot
			{
				OFFSET 2.562200 -7.039590 0.000000 
				CHANNELS 3 Zrotation Yrotation Xrotation
				JOINT LeftToeBase
				{
					OFFSET 0.157640 -0.433110 2.322550 
					CHANNELS 3 Zrotation Yrotation Xrotation
					End Site
					{
						OFFSET 0.000000 0.000000 0.000000 
					}
				}
			}
		}
	}
	JOINT RightUpLeg
	{
		OFFSET -1.305520 -1.794630 0.839290 
		CHANNELS 3 Zrotation Yrotation Xrotation
		JOINT RightLeg
		{
			OFFSET -2.542530 -6.985550 0.000000 
			CHANNELS 3 Zrotation Yrotation Xrotation
			JOINT RightFoot
			{
				OFFSET -2.568260 -7.056230 0.000000 
				CHANNELS 3 Zrotation Yrotation Xrotation
				JOINT RightToeBase
				{
					OFFSET -0.164730 -0.452590 2.363150 
					CHANNELS 3 Zrotation Yrotation Xrotation
					End Site
					{
						OFFSET 0.000000 0.000000 0.000000 
					}
				}
			}
		}
	}
	JOINT Spine
	{
		OFFSET 0.028270 2.035590 -0.193380 
		CHANNELS 3 Zrotation Yrotation Xrotation
		JOINT Spine1
		{
			OFFSET 0.056720 2.048850 -0.042750 
			CHANNELS 3 Zrotation Yrotation Xrotation
			JOINT Neck1
			{
				OFFSET -0.054170 1.746240 0.172020 
				CHANNELS 3 Zrotation Yrotation Xrotation
				JOINT Head
				{
					OFFSET 0.104070 1.761360 -0.123970 
					CHANNELS 3 Zrotation Yrotation Xrotation
					End Site
					{
						OFFSET 0.000000 0.000000 0.000000 
					}
				}
			}
			JOINT LeftArm
			{
				OFFSET 3.362410 1.200890 -0.311210 
				CHANNELS 3 Zrotation Yrotation Xrotation
				JOINT LeftForeArm
				{
					OFFSET 4.983000 -0.000000 -0.000000 
					CHANNELS 3 Zrotation Yrotation Xrotation
					JOINT LeftHand
					{
						OFFSET 3.483560 -0.000000 -0.000000 
						CHANNELS 3 Zrotation Yrotation Xrotation
						JOINT LeftHandIndex1
						{
							OFFSET 0.715260 -0.000000 -0.000000 
							CHANNELS 3 Zrotation Yrotation Xrotation
							End Site
							{
								OFFSET 0.000000 0.000000 0.000000 
							}
						}
					}
				}
			}
			JOINT RightArm
			{
				OFFSET -3.136600 1.374050 -0.404650 
				CHANNELS 3 Zrotation Yrotation Xrotation
				JOINT RightForeArm
				{
					OFFSET -5.241900 -0.000000 -0.000000 
					CHANNELS 3 Zrotation Yrotation Xrotation
					JOINT RightHand
					{
						OFFSET -3.444170 -0.000000 -0.000000 
						CHANNELS 3 Zrotation Yrotation Xrotation
						JOINT RightHandIndex1
						{
							OFFSET -0.622530 -0.000000 -0.000000 
							CHANNELS 3 Zrotation Yrotation Xrotation
							End Site
							{
								OFFSET 0.000000 0.000000 0.000000 
							}
						}
					}
				}
			}
		}
	}
}
MOTION
Frames: 7
Frame Time: 0.041667
-1.441100 17.974751 -5.345624 -4.349761 2.940540 9.879306 -10.751031 -1.527927 -14.878654 0.402751 7.398946 22.105990 -0.050386 1.429200 -5.437992 0.156000 2.545300 7.015200 24.760487 4.416004 -12.714767 -1.612237 -7.405406 20.268465 0.005668 -2.706290 -8.267223 -0.151700 -2.510100 6.917700 3.586445 1.485989 -1.182609 3.081012 0.881607 -0.840835 -3.873844 1.820190 24.911056 -3.169200 0.872300 13.133600 -80.463698 5.152113 68.563564 82.227078 -62.546285 -52.699690 0.016794 0.979210 -12.701319 -7.125000 0.000000 0.000000 77.438408 -7.951578 63.622102 -99.306693 61.244182 -65.108564 0.117184 -0.521101 -18.603754 7.125000 0.000000 0.000000 
-1.430028 17.978112 -5.348986 -4.389625 2.791617 9.923232 -10.782651 -1.332733 -14.981303 0.407644 7.408036 22.127945 -0.043435 1.386338 -5.457073 0.175600 2.699100 7.442100 24.745315 4.415308 -12.764472 -1.612328 -7.397687 20.251821 0.000659 -2.619495 -8.150207 -0.139600 -2.407800 6.634000 3.519034 1.566010 -1.244458 3.035811 0.919351 -0.857284 -4.062372 2.016030 25.224761 -3.222600 0.948600 13.247100 -80.419195 5.171675 68.364410 82.423423 -62.558488 -52.848129 0.007483 0.979963 -13.111457 -7.125000 0.000000 0.000000 77.424327 -7.882608 63.783864 -99.276894 61.247319 -65.085263 0.113471 -0.521995 -18.631230 7.125000 0.000000 0.000000 
-1.416978 17.979496 -5.351754 -4.309481 2.657440 9.871682 -10.942869 -1.253344 -14.918193 0.400577 7.387185 22.083186 -0.062572 1.505190 -5.401536 0.155100 2.538000 6.995000 24.599430 4.308384 -12.791430 -1.615614 -7.408845 20.280228 -0.009618 -2.492494 -8.057425 -0.121500 -2.247400 6.190000 3.480355 1.635633 -1.004332 3.106230 0.959122 -0.778279 -4.223572 2.177413 25.558027 -3.263000 1.006400 13.387500 -80.503488 5.026258 68.181494 82.564550 -62.564372 -52.956282 0.003017 0.987350 -13.410011 -7.125000 0.000000 0.000000 77.342531 -7.681898 63.863184 -99.346637 61.239777 -65.142876 0.112840 -0.522065 -18.714342 7.125000 0.000000 0.000000 
-1.398886 17.978211 -5.354818 -4.208526 2.756823 9.807256 -11.094913 -1.378427 -14.855666 0.398258 7.384256 22.085761 -0.073472 1.567132 -5.360981 0.130700 2.330200 6.419200 24.448316 4.124844 -12.812870 -1.610862 -7.404381 20.258500 -0.013920 -2.448306 -8.041398 -0.108600 -2.125100 5.851600 3.422180 1.619029 -0.780436 3.142046 0.954552 -0.707042 -4.355045 2.328321 25.905964 -3.293600 1.062600 13.534400 -80.625840 4.859197 67.960775 82.441936 -62.554601 -52.851493 -0.006076 0.982554 -13.565242 -7.125000 0.000000 0.000000 77.277148 -7.492522 63.842998 -99.346173 61.242851 -65.135291 0.111365 -0.518865 -18.870568 7.125000 0.000000 0.000000 
-1.382278 17.978705 -5.366781 -4.182357 3.140748 9.737474 -11.130467 -1.649147 -14.825103 0.395487 7.381765 22.081363 -0.053687 1.403400 -5.322733 0.135600 2.373400 6.538800 24.394551 3.976710 -12.844143 -1.605690 -7.403221 20.248848 -0.000282 -2.619079 -8.162414 -0.119200 -2.225400 6.129000 3.478184 1.500060 -0.669227 3.147149 0.896418 -0.749191 -4.552617 2.484442 26.267376 -3.350100 1.112800 13.686500 -80.673737 4.984333 67.642413 82.603148 -62.562870 -52.973206 -0.026992 0.972755 -13.653374 -7.125000 0.000000 0.000000 77.188461 -7.319975 63.806071 -99.266129 61.255686 -65.059819 0.110044 -0.518571 -19.093292 7.125000 0.000000 0.000000 
-1.369129 17.980584 -5.372218 -4.313931 3.309172 9.640412 -11.021851 -1.671450 -14.782308 0.399664 7.380277 22.085659 -0.043374 1.308300 -5.268180 0.132600 2.347400 6.466800 24.503678 3.965156 -12.778352 -1.606702 -7.411102 20.267899 0.011294 -2.750712 -8.229621 -0.131500 -2.337100 6.438300 3.578125 1.464829 -0.556971 3.074958 0.876895 -0.769933 -4.732739 2.618233 26.599309 -3.404700 1.155900 13.815800 -80.735006 4.993837 67.466601 82.691046 -62.567902 -53.028781 -0.029230 0.990389 -14.010334 -7.125000 0.000000 0.000000 77.147294 -7.213289 63.829583 -99.214990 61.261933 -65.017751 0.110147 -0.519624 -19.393219 7.125000 0.000000 0.000000 
-1.355585 17.981968 -5.375480 -4.289014 3.460414 9.578148 -11.068476 -1.741008 -14.719017 0.400488 7.384569 22.099985 -0.040798 1.301361 -5.315177 0.109400 2.133000 5.873400 24.465525 3.807402 -12.779876 -1.606191 -7.419923 20.282992 0.014904 -2.787294 -8.227869 -0.126200 -2.290000 6.307800 3.386213 1.430451 -0.660215 2.997201 0.855619 -0.862237 -4.823996 2.724190 26.898485 -3.441000 1.210900 13.887000 -80.631919 5.126071 67.321728 83.126948 -62.593858 -53.363721 -0.034602 1.011511 -14.509545 -7.125000 0.000000 0.000000 77.237914 -7.275567 63.876980 -99.196598 61.266242 -65.008964 0.111218 -0.516878 -19.759750 7.125000 0.000000 0.000000 
